<svg id="Icons" height="512" viewBox="0 0 74 74" width="512" xmlns="http://www.w3.org/2000/svg"><path d="m60.481 71.171a5.991 5.991 0 0 1 -5.9-5.036l-3-18.724a1 1 0 0 1 .829-1.146l9.839-1.575a1 1 0 0 1 1.145.83l3 18.724a5.989 5.989 0 0 1 -4.964 6.856 6.006 6.006 0 0 1 -.949.071zm-6.767-23.089 2.839 17.736a3.982 3.982 0 0 0 7.864-1.258l-2.84-17.737z"/><path d="m53.08 51.454a1 1 0 0 1 -.157-1.988l9.838-1.574a1 1 0 0 1 .316 1.974l-9.838 1.575a.956.956 0 0 1 -.159.013z"/><path d="m55.388 47.8a1 1 0 0 1 -.986-.835l-3.027-18.072a1 1 0 1 1 1.972-.33l2.864 17.093 2.133-.341-4.126-26.915a1 1 0 0 1 1.977-.3l4.277 27.892a1 1 0 0 1 -.83 1.139l-4.1.655a.965.965 0 0 1 -.154.014z"/><path d="m15.769 71.171a6.006 6.006 0 0 1 -.949-.075 5.989 5.989 0 0 1 -4.961-6.852l3-18.724a1 1 0 0 1 1.141-.83l9.839 1.575a1 1 0 0 1 .829 1.146l-3 18.724a5.991 5.991 0 0 1 -5.899 5.036zm-.633-2.05a3.984 3.984 0 0 0 4.561-3.3l2.839-17.736-7.863-1.259-2.84 17.734a3.987 3.987 0 0 0 3.3 4.561z"/><path d="m23.17 51.454a.956.956 0 0 1 -.159-.013l-9.838-1.575a1 1 0 1 1 .316-1.974l9.838 1.574a1 1 0 0 1 -.157 1.988z"/><path d="m20.862 47.8a.965.965 0 0 1 -.159-.013l-4.095-.655a1 1 0 0 1 -.83-1.139l4.277-27.893a1 1 0 0 1 1.977.3l-4.126 26.915 2.133.341 2.861-17.093a1 1 0 1 1 1.972.33l-3.024 18.073a1 1 0 0 1 -.986.834z"/><path d="m38.125 37.359a18.094 18.094 0 1 1 18.094-18.094 18.115 18.115 0 0 1 -18.094 18.094zm0-34.187a16.094 16.094 0 1 0 16.094 16.093 16.112 16.112 0 0 0 -16.094-16.093z"/><path d="m38.125 33.325a14.06 14.06 0 1 1 14.06-14.06 14.076 14.076 0 0 1 -14.06 14.06zm0-26.119a12.06 12.06 0 1 0 12.06 12.059 12.073 12.073 0 0 0 -12.06-12.059z"/></svg>