<svg id="Icons" height="512" viewBox="0 0 74 74" width="512" xmlns="http://www.w3.org/2000/svg"><path d="m53.01 72.8a4.491 4.491 0 0 1 -4.523-4.216l-1.332-23.091c-13.629-4.193-18.869-13.941-20.473-17.877-7.432.909-13.3-.346-17.286-3.731a14.19 14.19 0 0 1 -4.34-6.614 3.333 3.333 0 0 1 .483-2.959 3.377 3.377 0 0 1 2.686-1.412h.08a3.377 3.377 0 0 1 3.222 2.348 7.462 7.462 0 0 0 2.334 3.52c2.594 2.167 6.854 2.849 12.66 2.029.565-.079 1.111-.172 1.641-.266a.994.994 0 0 1 .693.13 5.754 5.754 0 0 0 2.994.828 6.015 6.015 0 0 0 5.459-3.5.991.991 0 0 1 .478-.486 33.067 33.067 0 0 0 13.465-11.803 3.4 3.4 0 0 1 6.129 1.123 3.43 3.43 0 0 1 -.475 2.662 39.336 39.336 0 0 1 -14.164 13.115 23.766 23.766 0 0 0 8.44 9.032l9.184-7.421a2.664 2.664 0 0 0 .875-2.935l-2.41-7.456a3.881 3.881 0 0 1 2.123-4.732 3.922 3.922 0 0 1 1.558-.326 3.869 3.869 0 0 1 3.657 2.568l5.153 14.343a4.669 4.669 0 0 1 -1.052 4.865l-12.744 13.119v24.443a4.638 4.638 0 0 1 -3.357 4.555 4.539 4.539 0 0 1 -1.158.145zm-25.678-47.278a1 1 0 0 1 .939.659c1.124 3.09 5.895 13.491 20.12 17.593a1 1 0 0 1 .72.9l1.372 23.783a2.607 2.607 0 0 0 .8 1.688 2.554 2.554 0 0 0 2.375.571 2.676 2.676 0 0 0 1.867-2.616v-24.849a1 1 0 0 1 .283-.7l13.024-13.405a2.678 2.678 0 0 0 .607-2.794l-5.156-14.352a1.924 1.924 0 0 0 -2.523-1.081 1.881 1.881 0 0 0 -1.027 2.289l2.41 7.452a4.709 4.709 0 0 1 -1.524 5.111l-9.719 7.851a1 1 0 0 1 -1.118.094 25.882 25.882 0 0 1 -10.282-11.088 1 1 0 0 1 .439-1.337 37.318 37.318 0 0 0 14.3-12.906 1.4 1.4 0 0 0 -.464-1.994 1.384 1.384 0 0 0 -1.852.414 35.047 35.047 0 0 1 -13.958 12.342 8.02 8.02 0 0 1 -7.116 4.337 7.776 7.776 0 0 1 -3.7-.926c-.441.076-.892.15-1.355.214-6.387.9-11.172.072-14.218-2.473a9.466 9.466 0 0 1 -2.962-4.462 1.338 1.338 0 0 0 -1.343-.937 1.4 1.4 0 0 0 -1.108.584 1.352 1.352 0 0 0 -.2 1.2 12.19 12.19 0 0 0 3.725 5.683c3.672 3.118 9.326 4.181 16.5 3.171a.955.955 0 0 1 .144-.016z"/><path d="m29.994 18.975a8.238 8.238 0 1 1 8.236-8.238 8.247 8.247 0 0 1 -8.236 8.238zm0-14.475a6.238 6.238 0 1 0 6.236 6.237 6.244 6.244 0 0 0 -6.236-6.237z"/></svg>