<svg id="Icons" height="512" viewBox="0 0 74 74" width="512" xmlns="http://www.w3.org/2000/svg"><path d="m19.384 70.606a17.213 17.213 0 0 1 -4.781-.685c-7.703-2.721-12.392-8.545-12.596-15.586-.207-7.335 4.5-14.312 11.724-17.35 4.511-1.507 7.3-1.194 9.014-.83a19.522 19.522 0 0 1 10.974 6.626c3.106-2.883 8.58-5.9 15.869-1.828a28.97 28.97 0 0 1 -1.856-15.991 1 1 0 0 1 1.965.371c-1.505 7.97 1.525 14.559 2.981 17.726l.089.192a1 1 0 0 1 -1.523 1.207c-7.8-6.052-13.487-3.071-16.883.5a.985.985 0 0 1 -.776.309 1 1 0 0 1 -.74-.388 17.743 17.743 0 0 0 -10.518-6.767 14.345 14.345 0 0 0 -7.891.744c-6.4 2.694-10.619 8.9-10.43 15.422.182 6.276 4.266 11.284 11.208 13.741a14.963 14.963 0 0 0 10.486-.819 24.994 24.994 0 0 0 4.268-2.383 1 1 0 0 1 .965-.134c18.773 7.289 32.128-3.513 37-8.5a7.321 7.321 0 0 0 2.038-5.807l-.161-1.817c-.787-8.908-1.356-15.345-5.053-23.451a8.87 8.87 0 0 0 -2.961-3.34 1 1 0 0 1 .957-1.757 10.812 10.812 0 0 1 3.824 4.268c3.839 8.418 4.42 15 5.225 24.1l.158 1.821a9.315 9.315 0 0 1 -2.6 7.386c-5.1 5.223-19.03 16.495-38.65 9.154a29.673 29.673 0 0 1 -4.179 2.281 17.065 17.065 0 0 1 -7.147 1.585z"/><path d="m52.96 45.564a1 1 0 0 1 -.648-.239c-.35-.3-.712-.6-1.05-.843a1 1 0 0 1 1.179-1.615c.375.274.779.605 1.167.936a1 1 0 0 1 -.648 1.761z"/><path d="m30.567 49.489a1 1 0 0 1 -.893-1.447 20.375 20.375 0 0 1 3.235-4.456 1 1 0 0 1 1.447 1.381 18.653 18.653 0 0 0 -2.894 3.971 1 1 0 0 1 -.895.551z"/><path d="m53.06 27.05a11.825 11.825 0 1 1 11.825-11.825 11.838 11.838 0 0 1 -11.825 11.825zm0-21.65a9.825 9.825 0 1 0 9.825 9.825 9.837 9.837 0 0 0 -9.825-9.825z"/><path d="m53.06 21.094a5.869 5.869 0 1 1 5.868-5.869 5.876 5.876 0 0 1 -5.868 5.869zm0-9.737a3.869 3.869 0 1 0 3.868 3.868 3.873 3.873 0 0 0 -3.868-3.868z"/></svg>