<svg id="Icons" height="512" viewBox="0 0 74 74" width="512" xmlns="http://www.w3.org/2000/svg"><path d="m43.493 29.745a1 1 0 0 1 -1-1c0-4.821-2.324-7.975-7.1-9.644a1 1 0 1 1 .659-1.888c5.6 1.956 8.443 5.836 8.443 11.532a1 1 0 0 1 -1.002 1z"/><path d="m6.146 29.745a1 1 0 0 1 -1-1c0-5.684 2.836-9.564 8.428-11.532a1 1 0 0 1 .664 1.887c-4.772 1.679-7.092 4.834-7.092 9.645a1 1 0 0 1 -1 1z"/><path d="m33.238 21.04h-16.838a3.591 3.591 0 0 1 0-7.182h16.838a3.591 3.591 0 1 1 0 7.182zm-16.838-5.182a1.591 1.591 0 0 0 0 3.182h16.838a1.591 1.591 0 1 0 0-3.182z"/><path d="m9.346 32.853h-6.4a1 1 0 0 1 -1-1.083c.2-2.408 1.731-4.025 3.808-4.025h.777c2.077 0 3.607 1.617 3.808 4.025a1 1 0 0 1 -1 1.083zm-5.151-2h3.905a1.653 1.653 0 0 0 -1.563-1.108h-.779a1.653 1.653 0 0 0 -1.558 1.108z"/><path d="m46.692 32.853h-6.4a1 1 0 0 1 -1-1.083c.2-2.408 1.731-4.025 3.808-4.025h.777c2.077 0 3.607 1.617 3.808 4.025a1 1 0 0 1 -1 1.083zm-5.151-2h3.9a1.653 1.653 0 0 0 -1.563-1.108h-.778a1.654 1.654 0 0 0 -1.559 1.108z"/><path d="m67.747 50.81a1 1 0 0 1 -1-1c0-4.822-2.323-7.977-7.1-9.645a1 1 0 1 1 .659-1.888c5.6 1.956 8.442 5.836 8.442 11.533a1 1 0 0 1 -1.001 1z"/><path d="m30.4 50.81a1 1 0 0 1 -1-1c0-5.685 2.836-9.565 8.428-11.533a1 1 0 0 1 .664 1.887c-4.771 1.679-7.092 4.836-7.092 9.646a1 1 0 0 1 -1 1z"/><path d="m57.492 42.1h-16.84a3.591 3.591 0 0 1 0-7.182h16.84a3.591 3.591 0 0 1 0 7.182zm-16.84-5.182a1.591 1.591 0 0 0 0 3.182h16.84a1.591 1.591 0 0 0 0-3.182z"/><path d="m33.6 53.917h-6.4a1 1 0 0 1 -1-1.084c.2-2.406 1.731-4.023 3.808-4.023h.777c2.077 0 3.607 1.617 3.807 4.023a1 1 0 0 1 -1 1.084zm-5.151-2h3.9a1.652 1.652 0 0 0 -1.559-1.107h-.777a1.652 1.652 0 0 0 -1.563 1.107z"/><path d="m70.947 53.917h-6.4a1 1 0 0 1 -1-1.084c.2-2.406 1.731-4.023 3.808-4.023h.777c2.076 0 3.607 1.617 3.807 4.023a1 1 0 0 1 -1 1.084zm-5.151-2h3.9a1.654 1.654 0 0 0 -1.563-1.107h-.777a1.654 1.654 0 0 0 -1.556 1.107z"/></svg>