<svg id="Icons" height="512" viewBox="0 0 74 74" width="512" xmlns="http://www.w3.org/2000/svg"><path d="m37 72a1 1 0 0 1 -.8-.4c-.971-1.294-23.761-31.846-23.761-45.039a24.561 24.561 0 0 1 49.122 0c0 13.193-22.79 43.745-23.761 45.039a1 1 0 0 1 -.8.4zm0-68a22.587 22.587 0 0 0 -22.561 22.561c0 11.2 18.458 37.127 22.561 42.752 4.1-5.625 22.561-31.557 22.561-42.752a22.587 22.587 0 0 0 -22.561-22.561z"/><path d="m37 43.819a17.259 17.259 0 1 1 17.259-17.258 17.278 17.278 0 0 1 -17.259 17.258zm0-32.519a15.259 15.259 0 1 0 15.259 15.261 15.276 15.276 0 0 0 -15.259-15.261z"/><path d="m42.787 29.233h-11.574a1 1 0 0 1 -1-1v-3.345a1 1 0 0 1 1-1h11.574a1 1 0 0 1 1 1v3.345a1 1 0 0 1 -1 1zm-10.574-2h9.574v-1.345h-9.574z"/><path d="m28.885 32.783a3.332 3.332 0 0 1 -3.329-3.329v-5.787a3.329 3.329 0 1 1 6.657 0v5.787a3.332 3.332 0 0 1 -3.328 3.329zm0-10.445a1.331 1.331 0 0 0 -1.329 1.329v5.787a1.329 1.329 0 1 0 2.657 0v-5.787a1.331 1.331 0 0 0 -1.328-1.329z"/><path d="m45.115 32.783a3.332 3.332 0 0 1 -3.328-3.329v-5.787a3.329 3.329 0 1 1 6.657 0v5.787a3.332 3.332 0 0 1 -3.329 3.329zm0-10.445a1.331 1.331 0 0 0 -1.328 1.329v5.787a1.329 1.329 0 1 0 2.657 0v-5.787a1.331 1.331 0 0 0 -1.329-1.329z"/></svg>