<svg id="Icons" height="512" viewBox="0 0 74 74" width="512" xmlns="http://www.w3.org/2000/svg"><path d="m14.636 17.651q-.29 0-.58-.022a7.644 7.644 0 0 1 -7.048-8.183 7.635 7.635 0 1 1 7.628 8.205zm-5.636-8.051a5.637 5.637 0 1 0 6.041-5.2 5.643 5.643 0 0 0 -6.041 5.2z"/><path d="m35.213 72c-.094 0-.188 0-.283-.01-.059 0-.118-.012-.18-.021-.032 0-.133-.015-.164-.02a3.748 3.748 0 0 1 -3.056-4.286l3.692-24.684-10.522-11.079-3.35 12.9a3.144 3.144 0 0 1 -3.353 2.562 2.251 2.251 0 0 1 -.342-.045 3.16 3.16 0 0 1 -2.555-3.656l2.847-19.175a.9.9 0 0 1 -.007-.146 10.369 10.369 0 0 1 3.524-7.046 10.5 10.5 0 0 1 7.267-3c.013.007-.049-.016 11.171.92l-1.322-9.606a3.18 3.18 0 0 1 5.066-2.967 3.142 3.142 0 0 1 1.235 2.1l1.863 13.55a3.121 3.121 0 0 1 -.851 2.623 3.162 3.162 0 0 1 -2.578.979l-8.273-.7 9.325 10.952 17.133-7.771a3.722 3.722 0 0 1 3.658 6.483.755.755 0 0 1 -.094.048l-21.46 9.6-4.722 28.375a3.715 3.715 0 0 1 -3.669 3.12zm-.3-2.025c.011 0 .061.006.112.014a1.735 1.735 0 0 0 1.879-1.439l4.811-28.9a1 1 0 0 1 .585-.75l21.9-9.8a1.724 1.724 0 0 0 -1.779-2.954l-17.914 8.132a1 1 0 0 1 -1.175-.262l-11.388-13.376a1 1 0 0 1 -.128-1.106.985.985 0 0 1 .975-.534l10.7.907a1.2 1.2 0 0 0 .953-.366 1.143 1.143 0 0 0 .32-.965l-1.864-13.563a1.16 1.16 0 0 0 -.455-.773 1.2 1.2 0 0 0 -.882-.229 1.176 1.176 0 0 0 -1 1.327l1.487 10.844a1 1 0 0 1 -1.074 1.132c-4.773-.4-11.989-1-12.3-1.015a8.494 8.494 0 0 0 -5.854 2.464 8.459 8.459 0 0 0 -2.874 5.47.9.9 0 0 1 .018.268l-2.896 19.479a1.165 1.165 0 0 0 .957 1.372l.116.015a1.2 1.2 0 0 0 1.251-.99l3.821-14.72a1 1 0 0 1 1.692-.438l11.664 12.281a1.018 1.018 0 0 1 .2.077 1 1 0 0 1 .529 1.036l-3.793 25.358a1.744 1.744 0 0 0 1.415 2.006c-.006-.001-.007-.002-.004-.002z"/></svg>