<svg id="Icons" height="512" viewBox="0 0 74 74" width="512" xmlns="http://www.w3.org/2000/svg"><path d="m37 18.688a8.032 8.032 0 1 1 8.031-8.032 8.041 8.041 0 0 1 -8.031 8.032zm0-14.063a6.032 6.032 0 1 0 6.031 6.031 6.038 6.038 0 0 0 -6.031-6.031z"/><path d="m26.082 72a4.151 4.151 0 0 1 -1.65-.343 4.245 4.245 0 0 1 -2.186-2.34 4.026 4.026 0 0 1 .072-3.1l5.253-19.417v-14.539l-6.715 9.46a.932.932 0 0 1 -.084.1 3.629 3.629 0 0 1 -3.194 1.179 3.55 3.55 0 0 1 -1.9-.815 3.682 3.682 0 0 1 -1.27-2.532 3.587 3.587 0 0 1 .847-2.611l11.071-15.5a5.742 5.742 0 0 1 4.426-2.116h12.486a5.712 5.712 0 0 1 4.378 2.054l11.189 15.6a3.631 3.631 0 0 1 -.414 5.077c-.012.01-.023.02-.036.029a3.748 3.748 0 0 1 -1.97.825 3.555 3.555 0 0 1 -3.153-1.211l-6.774-9.54v14.668l5.256 19.3a4.147 4.147 0 0 1 -7.606 3.305l-6.553-19.687h-1.123l-6.475 19.6a4.243 4.243 0 0 1 -3.875 2.554zm2.489-43.873a1 1 0 0 1 1 1v17.804a.994.994 0 0 1 -.034.261l-5.31 19.629a1.1 1.1 0 0 1 -.061.166 2.044 2.044 0 0 0 -.051 1.615 2.241 2.241 0 0 0 1.14 1.231 2.184 2.184 0 0 0 2.838-1.113l6.666-20.188a1 1 0 0 1 .95-.686h2.567a1 1 0 0 1 .949.684l6.746 20.282a2.122 2.122 0 0 0 2.789 1.007 2.188 2.188 0 0 0 1.094-2.853.912.912 0 0 1 -.051-.144l-5.31-19.5a.967.967 0 0 1 -.035-.262v-17.935a1 1 0 0 1 1.815-.579l8.527 12.018a1.556 1.556 0 0 0 1.342.46 1.837 1.837 0 0 0 .941-.386 1.676 1.676 0 0 0 .154-2.317l-11.2-15.615a3.642 3.642 0 0 0 -2.8-1.28h-12.49a3.666 3.666 0 0 0 -2.847 1.341l-11.049 15.475a.992.992 0 0 1 -.063.079 1.61 1.61 0 0 0 -.391 1.188 1.677 1.677 0 0 0 .561 1.144 1.606 1.606 0 0 0 .859.363 1.68 1.68 0 0 0 1.451-.513l8.488-11.957a1 1 0 0 1 .815-.421z"/><path d="m62.215 43.712a1.088 1.088 0 0 1 -.114-.006 221.522 221.522 0 0 0 -50.172 0 1 1 0 0 1 -.227-1.987 223.54 223.54 0 0 1 50.625 0 1 1 0 0 1 -.112 1.993z"/><path d="m7.354 51.2a2.38 2.38 0 0 1 -2.254-2.036 59.535 59.535 0 0 1 -.955-11.706 2.354 2.354 0 0 1 2.055-2.398l3.46-.283a2.32 2.32 0 0 1 2.417 2.06 69.51 69.51 0 0 1 .951 11.68 2.359 2.359 0 0 1 -2.06 2.4l-3.448.283c-.055 0-.11 0-.166 0zm2.468-14.429-3.46.282a.433.433 0 0 0 -.214.415 57.877 57.877 0 0 0 .926 11.361.426.426 0 0 0 .289.374l3.441-.281a.432.432 0 0 0 .224-.416 67.476 67.476 0 0 0 -.931-11.386.4.4 0 0 0 -.275-.349z"/><path d="m66.646 51.2c-.056 0-.111 0-.166-.007l-3.442-.281a2.359 2.359 0 0 1 -2.061-2.4 69.531 69.531 0 0 1 .951-11.681 2.329 2.329 0 0 1 2.417-2.059l3.46.283a2.354 2.354 0 0 1 2.052 2.4 59.535 59.535 0 0 1 -.957 11.709 2.38 2.38 0 0 1 -2.254 2.036zm-2.468-14.429a.4.4 0 0 0 -.27.348 67.5 67.5 0 0 0 -.931 11.387.432.432 0 0 0 .224.416l3.441.281c.075 0 .247-.13.289-.374a57.877 57.877 0 0 0 .926-11.361.433.433 0 0 0 -.214-.415l-3.46-.282z"/></svg>