<svg id="Icons" height="512" viewBox="0 0 74 74" width="512" xmlns="http://www.w3.org/2000/svg"><path d="m15.776 41.243a4.383 4.383 0 0 1 -4.376-4.377v-22.083a9.783 9.783 0 0 1 9.77-9.772h6.015a1 1 0 0 1 1 1v15.094a1 1 0 0 1 -1 1h-4.8a2.232 2.232 0 0 0 -2.23 2.229v12.532a4.383 4.383 0 0 1 -4.379 4.377zm5.394-34.232a7.781 7.781 0 0 0 -7.77 7.772v22.083a2.378 2.378 0 0 0 4.755 0v-12.532a4.234 4.234 0 0 1 4.23-4.229h3.8v-13.094z"/><path d="m30.2 25.573a4.015 4.015 0 0 1 -4.011-4.011v-15.551a4.011 4.011 0 1 1 8.022 0v15.551a4.015 4.015 0 0 1 -4.011 4.011zm0-21.573a2.013 2.013 0 0 0 -2.011 2.011v15.551a2.011 2.011 0 1 0 4.022 0v-15.551a2.013 2.013 0 0 0 -2.011-2.011z"/><path d="m15.767 72a1 1 0 0 1 -1-1v-30.757a1 1 0 0 1 2 0v30.757a1 1 0 0 1 -1 1z"/><path d="m50.731 72a1 1 0 0 1 -1-1v-30.757a1 1 0 0 1 2 0v30.757a1 1 0 0 1 -1 1z"/><path d="m50.721 41.248a5.143 5.143 0 0 1 -5.129-5.148v-12.159a1 1 0 0 1 2 0v12.159a3.13 3.13 0 1 0 6.259 0v-12.159a1 1 0 0 1 2 0v12.159a5.143 5.143 0 0 1 -5.13 5.148z"/><path d="m50.722 25.759a11.88 11.88 0 1 1 11.878-11.88 11.893 11.893 0 0 1 -11.878 11.88zm0-21.759a9.88 9.88 0 1 0 9.88 9.879 9.89 9.89 0 0 0 -9.88-9.879z"/><path d="m50.722 19.842a5.963 5.963 0 1 1 5.963-5.963 5.97 5.97 0 0 1 -5.963 5.963zm0-9.925a3.963 3.963 0 1 0 3.963 3.962 3.966 3.966 0 0 0 -3.963-3.962z"/></svg>