<svg id="Icons" height="512" viewBox="0 0 74 74" width="512" xmlns="http://www.w3.org/2000/svg"><path d="m41.442 68.929q-.287 0-.558-.024c-3.752-.329-8.946-5.477-15.439-15.3a31.7 31.7 0 0 1 -5.379-16.586 23.881 23.881 0 0 1 .191-3.894c-1.269-1.291-5.06-5.613-3.988-10.182.876-3.735 5.879-5.447 9.923-6.226a4.5 4.5 0 0 1 5.2 3.343c.576 2.463.27 5.72-.909 9.683a17.987 17.987 0 0 0 1.064 6.514c1.668.782 8.258 4.1 12.192 9.449 1.5-5.123 6.179-16.872 17.356-14.9 5.985 1.054 8.38 4.712 9.334 7.6 1.721 5.2 0 11.371-2.584 14.1-3.852 4.069-18.81 16.422-26.403 16.423zm-14.407-50.293a2.453 2.453 0 0 0 -.464.044c-2.283.44-7.666 1.779-8.355 4.718-.988 4.217 3.733 8.588 3.781 8.632a1 1 0 0 1 .312.906 20.93 20.93 0 0 0 -.243 4.029 29.689 29.689 0 0 0 5.047 15.535c5.88 8.9 10.963 14.15 13.947 14.412 6.287.533 21.292-11.514 25.334-15.788 2.152-2.276 3.559-7.8 2.137-12.1-1.122-3.393-3.813-5.556-7.782-6.254-12.208-2.15-15.586 15.418-15.619 15.596a1 1 0 0 1 -1.86.3c-3.641-6.64-12.809-10.709-12.9-10.749a1 1 0 0 1 -.522-.532 19.7 19.7 0 0 1 -1.362-7.8 1.006 1.006 0 0 1 .043-.283c1.384-4.592 1.263-7.315.918-8.791a2.479 2.479 0 0 0 -2.412-1.875z"/><path d="m13.954 32.606a1 1 0 0 1 -.944-.671l-1.669-4.788a1 1 0 0 1 .613-1.272l4.83-1.7a1 1 0 1 1 .662 1.886l-3.888 1.365 1.01 2.9 4.01-1.415a1 1 0 0 1 .666 1.886l-4.957 1.749a1 1 0 0 1 -.333.06z"/><path d="m30.374 26.885a1 1 0 0 1 -.331-1.944l5.9-2.071-1.01-2.9-4.158 1.455a1 1 0 0 1 -.66-1.888l5.1-1.786a1 1 0 0 1 1.274.615l1.668 4.789a1 1 0 0 1 -.613 1.272l-6.843 2.4a.985.985 0 0 1 -.327.058z"/><path d="m40.01 29.568a2.451 2.451 0 0 1 -2.31-1.641l-4.531-13.027a2.442 2.442 0 0 1 1.506-3.111l3.138-1.091a2.447 2.447 0 0 1 3.111 1.502l4.529 13.03a2.441 2.441 0 0 1 -1.506 3.112l-3.137 1.09a2.437 2.437 0 0 1 -.8.136zm-1.4-17.011a.434.434 0 0 0 -.145.025l-3.138 1.09a.445.445 0 0 0 -.254.227.439.439 0 0 0 -.019.339l4.533 13.032a.445.445 0 0 0 .566.273l3.138-1.09a.442.442 0 0 0 .273-.565l-4.529-13.033a.446.446 0 0 0 -.421-.298z"/><path d="m10.891 39.734a2.449 2.449 0 0 1 -2.312-1.642l-4.53-13.03a2.446 2.446 0 0 1 1.507-3.112l3.136-1.091a2.444 2.444 0 0 1 3.108 1.507l4.53 13.03a2.448 2.448 0 0 1 -1.507 3.112l-3.133 1.092a2.456 2.456 0 0 1 -.799.134zm-1.397-17.011a.43.43 0 0 0 -.145.025l-3.137 1.09a.446.446 0 0 0 -.274.567l4.53 13.03a.441.441 0 0 0 .566.274l3.137-1.09a.446.446 0 0 0 .274-.567l-4.53-13.03a.445.445 0 0 0 -.421-.299z"/></svg>