<svg id="Icons" height="512" viewBox="0 0 74 74" width="512" xmlns="http://www.w3.org/2000/svg"><path d="m69.79 62.467h-28.8a1 1 0 0 1 -.976-.782l-4.224-18.967-4.22 18.967a1 1 0 0 1 -.976.782h-28.804a1 1 0 0 1 -.98-1.2l7.559-37.473a1 1 0 0 1 .981-.8h52.88a1 1 0 0 1 .981.8l7.56 37.476a1 1 0 0 1 -.981 1.2zm-28-2h26.78l-7.158-35.475h-51.244l-7.156 35.475h26.78l5.021-22.567a1 1 0 0 1 1.954 0z"/><path d="m62.23 24.992h-52.88a1 1 0 0 1 -1-1v-6.959a1 1 0 0 1 1-1h52.88a1 1 0 0 1 1 1v6.959a1 1 0 0 1 -1 1zm-51.88-2h50.88v-4.959h-50.88z"/><path d="m6 58.083h-2.917a1 1 0 1 1 0-2h2.917a1 1 0 0 1 0 2z"/><path d="m12.359 58.083h-2.917a1 1 0 0 1 0-2h2.917a1 1 0 0 1 0 2z"/><path d="m18.719 58.083h-2.919a1 1 0 1 1 0-2h2.917a1 1 0 0 1 0 2z"/><path d="m25.078 58.083h-2.917a1 1 0 0 1 0-2h2.917a1 1 0 1 1 0 2z"/><path d="m31.438 58.083h-2.917a1 1 0 0 1 0-2h2.917a1 1 0 1 1 0 2z"/><path d="m68.5 58.083h-2.92a1 1 0 0 1 0-2h2.92a1 1 0 0 1 0 2z"/><path d="m62.138 58.083h-2.917a1 1 0 0 1 0-2h2.917a1 1 0 1 1 0 2z"/><path d="m55.778 58.083h-2.917a1 1 0 1 1 0-2h2.917a1 1 0 0 1 0 2z"/><path d="m49.419 58.083h-2.919a1 1 0 0 1 0-2h2.917a1 1 0 0 1 0 2z"/><path d="m43.06 58.083h-2.917a1 1 0 0 1 0-2h2.917a1 1 0 0 1 0 2z"/><path d="m27.514 29.512a1 1 0 0 1 -.16-1.987 5.659 5.659 0 0 0 4.024-2.246 6.437 6.437 0 0 0 .726-4.535 1 1 0 0 1 1.946-.463 8.47 8.47 0 0 1 -1.008 6.108 7.561 7.561 0 0 1 -5.367 3.111 1.111 1.111 0 0 1 -.161.012z"/><path d="m44.066 29.512a1.122 1.122 0 0 1 -.161-.012 7.561 7.561 0 0 1 -5.367-3.111 8.47 8.47 0 0 1 -1.008-6.108 1 1 0 0 1 1.947.46 6.5 6.5 0 0 0 .733 4.55 5.665 5.665 0 0 0 4.016 2.234 1 1 0 0 1 -.16 1.987z"/><path d="m41.966 21.512h-12.352a1 1 0 0 1 0-2h12.352a1 1 0 0 1 0 2z"/></svg>