<svg id="Icons" height="512" viewBox="0 0 74 74" width="512" xmlns="http://www.w3.org/2000/svg"><path d="m67.258 66.855h-6.675a1 1 0 0 1 -1-1v-55.18h-45.558v55.18a1 1 0 0 1 -1 1h-6.675a1 1 0 0 1 -1-1v-59.518a4.343 4.343 0 0 1 4.338-4.337h54.233a4.342 4.342 0 0 1 4.337 4.337v59.518a1 1 0 0 1 -1 1zm-5.675-2h4.675v-58.518a2.339 2.339 0 0 0 -2.337-2.337h-54.233a2.339 2.339 0 0 0 -2.338 2.337v58.518h4.675v-55.18a1 1 0 0 1 1-1h47.558a1 1 0 0 1 1 1z"/><path d="m60.583 18.462h-47.558a1 1 0 0 1 0-2h47.558a1 1 0 0 1 0 2z"/><path d="m16.431 72h-13.21a1 1 0 0 1 -1-1v-2.722a3.427 3.427 0 0 1 3.423-3.423h8.364a3.427 3.427 0 0 1 3.423 3.423v2.722a1 1 0 0 1 -1 1zm-12.21-2h11.21v-1.722a1.424 1.424 0 0 0 -1.423-1.423h-8.364a1.424 1.424 0 0 0 -1.423 1.423z"/><path d="m70.779 72h-13.21a1 1 0 0 1 -1-1v-2.722a3.427 3.427 0 0 1 3.423-3.423h8.364a3.427 3.427 0 0 1 3.423 3.423v2.722a1 1 0 0 1 -1 1zm-12.21-2h11.21v-1.722a1.424 1.424 0 0 0 -1.423-1.423h-8.364a1.424 1.424 0 0 0 -1.423 1.423z"/><path d="m26.12 30.783a1 1 0 0 1 -1-1v-11.315h-2.072v11.315a1 1 0 0 1 -2 0v-12.315a1 1 0 0 1 1-1h4.072a1 1 0 0 1 1 1v12.315a1 1 0 0 1 -1 1z"/><path d="m24.083 40.99a6.3 6.3 0 1 1 6.3-6.3 6.309 6.309 0 0 1 -6.3 6.3zm0-10.6a4.3 4.3 0 1 0 4.3 4.3 4.306 4.306 0 0 0 -4.3-4.303z"/><path d="m24.083 37.931a3.243 3.243 0 1 1 3.242-3.243 3.246 3.246 0 0 1 -3.242 3.243zm0-4.485a1.243 1.243 0 1 0 1.242 1.242 1.243 1.243 0 0 0 -1.242-1.242z"/><path d="m51.564 30.783a1 1 0 0 1 -1-1v-11.315h-2.072v11.315a1 1 0 1 1 -2 0v-12.315a1 1 0 0 1 1-1h4.072a1 1 0 0 1 1 1v12.315a1 1 0 0 1 -1 1z"/><path d="m49.526 40.99a6.3 6.3 0 1 1 6.3-6.3 6.309 6.309 0 0 1 -6.3 6.3zm0-10.6a4.3 4.3 0 1 0 4.3 4.3 4.306 4.306 0 0 0 -4.3-4.303z"/><path d="m49.526 37.931a3.243 3.243 0 1 1 3.242-3.243 3.246 3.246 0 0 1 -3.242 3.243zm0-4.485a1.243 1.243 0 1 0 1.242 1.242 1.243 1.243 0 0 0 -1.242-1.242z"/></svg>