<svg id="Icons" height="512" viewBox="0 0 74 74" width="512" xmlns="http://www.w3.org/2000/svg"><path d="m28.534 53.423a91.063 91.063 0 0 1 -10.61-.661 1 1 0 0 1 .229-1.987 83.432 83.432 0 0 0 20.852-.014 1 1 0 1 1 .233 1.986 90.5 90.5 0 0 1 -10.704.676z"/><path d="m39.123 44.181a.945.945 0 0 1 -.118-.007 83.479 83.479 0 0 0 -20.852-.014 1 1 0 1 1 -.229-1.987 85.358 85.358 0 0 1 21.314.015 1 1 0 0 1 -.115 1.993z"/><path d="m10.176 57.426a9.96 9.96 0 1 1 9.96-9.96 9.971 9.971 0 0 1 -9.96 9.96zm0-17.92a7.96 7.96 0 1 0 7.96 7.96 7.969 7.969 0 0 0 -7.96-7.96z"/><path d="m46.988 57.426a9.96 9.96 0 1 1 9.96-9.96 9.971 9.971 0 0 1 -9.96 9.96zm0-17.92a7.96 7.96 0 1 0 7.96 7.96 7.969 7.969 0 0 0 -7.96-7.96z"/><path d="m51.805 30.712h-.045a85.232 85.232 0 0 1 -21.042-3.389 1 1 0 1 1 .544-1.925 83.376 83.376 0 0 0 20.586 3.316 1 1 0 0 1 -.043 2z"/><path d="m53.173 22.25a1.007 1.007 0 0 1 -.274-.039 83.374 83.374 0 0 0 -20.582-3.343 1 1 0 0 1 -.953-1.045 1.015 1.015 0 0 1 1.044-.953 85.192 85.192 0 0 1 21.038 3.418 1 1 0 0 1 -.273 1.962z"/><path d="m23.936 30.82a10.1 10.1 0 0 1 -1.612-.13 9.921 9.921 0 1 1 1.612.13zm-.036-17.92a7.961 7.961 0 1 0 7.874 9.232 7.97 7.97 0 0 0 -7.874-9.232z"/><path d="m60.26 36.7a9.961 9.961 0 0 1 -9.838-11.551 9.96 9.96 0 1 1 19.665 3.181 9.977 9.977 0 0 1 -9.827 8.37zm-.023-17.923a7.961 7.961 0 1 0 7.875 9.233 7.969 7.969 0 0 0 -6.587-9.129 8.124 8.124 0 0 0 -1.288-.108z"/></svg>