<svg id="Icons" height="512" viewBox="0 0 74 74" width="512" xmlns="http://www.w3.org/2000/svg"><path d="m9.973 55.742c-4.4 0-7.973-3.3-7.973-7.351 0-1.6 2.563-26.565 7.973-26.565s7.973 24.964 7.973 26.565c0 4.053-3.577 7.351-7.973 7.351zm0-31.916c-.017 0-1.786.459-3.952 10.674a99.762 99.762 0 0 0 -2.021 13.891c0 2.95 2.68 5.351 5.973 5.351s5.973-2.4 5.973-5.351a99.693 99.693 0 0 0 -2.02-13.891c-2.166-10.215-3.937-10.674-3.953-10.674z"/><path d="m9.973 62.434a1 1 0 0 1 -1-1v-21.1a1 1 0 0 1 2 0v21.1a1 1 0 0 1 -1 1z"/><path d="m9.787 46.673a.994.994 0 0 1 -.74-.328l-2.047-2.261a1 1 0 1 1 1.477-1.344l2.05 2.26a1 1 0 0 1 -.74 1.672z"/><path d="m9.973 49.158a1 1 0 0 1 -.742-1.672l2.051-2.261a1 1 0 0 1 1.483 1.343l-2.051 2.262a1 1 0 0 1 -.741.328z"/><path d="m9.787 52.779a1 1 0 0 1 -.741-.328l-2.046-2.262a1 1 0 0 1 1.483-1.343l2.05 2.261a1 1 0 0 1 -.741 1.672z"/><path d="m61.985 53.782c-5.522 0-10.014-4.132-10.014-9.211 0-1.825 3.342-34.05 10.014-34.05s10.015 32.225 10.015 34.05c0 5.079-4.492 9.211-10.015 9.211zm0-41.261c-.1 0-2.455.159-5.4 14.032a129.324 129.324 0 0 0 -2.618 18.018c0 3.976 3.6 7.211 8.014 7.211s8.019-3.235 8.019-7.211a129.324 129.324 0 0 0 -2.618-18.018c-2.942-13.873-5.298-14.032-5.397-14.032z"/><path d="m61.985 62.434a1 1 0 0 1 -1-1v-27.278a1 1 0 1 1 2 0v27.278a1 1 0 0 1 -1 1z"/><path d="m61.744 42.058a.994.994 0 0 1 -.744-.328l-2.652-2.923a1 1 0 1 1 1.482-1.344l2.651 2.923a1 1 0 0 1 -.741 1.672z"/><path d="m61.985 45.27a1 1 0 0 1 -.741-1.672l2.656-2.923a1 1 0 0 1 1.482 1.344l-2.651 2.923a1 1 0 0 1 -.746.328z"/><path d="m61.744 49.952a1 1 0 0 1 -.74-.328l-2.652-2.924a1 1 0 0 1 1.482-1.344l2.651 2.924a1 1 0 0 1 -.741 1.672z"/><path d="m51.294 58.445h-32.994a1 1 0 1 1 0-2h32.99a1 1 0 0 1 0 2z"/><path d="m47.915 53.782h-26.232a1 1 0 0 1 -1-1v-9.282a1 1 0 0 1 1-1h26.232a1 1 0 0 1 1 1v9.287a1 1 0 0 1 -1 .995zm-25.232-2h24.232v-7.282h-24.232z"/><path d="m25.924 58.445a1 1 0 0 1 -1-1v-4.663a1 1 0 0 1 2 0v4.663a1 1 0 0 1 -1 1z"/><path d="m43.674 58.445a1 1 0 0 1 -1-1v-4.663a1 1 0 0 1 2 0v4.663a1 1 0 0 1 -1 1z"/><path d="m21.086 63.479a1 1 0 0 1 -1-1v-5.034a1 1 0 0 1 2 0v5.034a1 1 0 0 1 -1 1z"/><path d="m48.512 63.479a1 1 0 0 1 -1-1v-5.034a1 1 0 1 1 2 0v5.034a1 1 0 0 1 -1 1z"/></svg>