<svg id="Icons" height="512" viewBox="0 0 74 74" width="512" xmlns="http://www.w3.org/2000/svg"><path d="m41.065 30.241h-6.874a1 1 0 0 1 -.439-.1c-6.488-3.17-8.564-11.878-9.224-16.787a1 1 0 0 1 1.982-.267c.483 3.591 2.217 12.191 7.919 15.156h6.4c5.7-2.965 7.436-11.564 7.919-15.156a1 1 0 0 1 1.982.267c-.66 4.909-2.736 13.617-9.224 16.787a1 1 0 0 1 -.441.1z"/><path d="m46.441 71.943a3.533 3.533 0 0 1 -3.541-3.521v-11.38l-4.921-6.391h-.709l-4.937 6.391.018 11.379a3.539 3.539 0 0 1 -7.077 0v-13.712a1.009 1.009 0 0 1 .127-.488l3.61-6.452v-14.279c-7.379-5.176-9.311-15.778-9.811-20.159a1 1 0 1 1 1.987-.224c.471 4.189 2.326 14.427 9.37 19.015a1 1 0 0 1 .454.837v15.07a1 1 0 0 1 -.128.489l-3.606 6.452v13.452a1.539 1.539 0 0 0 3.077 0l-.019-11.722a1 1 0 0 1 .209-.613l5.447-7.05a1 1 0 0 1 .791-.389h1.692a1 1 0 0 1 .793.39l5.428 7.05a1 1 0 0 1 .208.61v11.724a1.529 1.529 0 0 0 3.058 0v-13.49l-2.775-6.511a1 1 0 0 1 -.08-.392v-15.669a1 1 0 0 1 .4-.8c6.353-4.76 8.116-14.494 8.578-18.46a1 1 0 0 1 1.987.231c-.483 4.139-2.319 14.2-8.965 19.517v14.977l2.775 6.51a1 1 0 0 1 .08.393v13.694a3.524 3.524 0 0 1 -3.52 3.521z"/><path d="m37.628 25.938a5.755 5.755 0 1 1 5.755-5.755 5.762 5.762 0 0 1 -5.755 5.755zm0-9.51a3.755 3.755 0 1 0 3.755 3.755 3.759 3.759 0 0 0 -3.755-3.755z"/><path d="m59.034 14.225h-42.812a1 1 0 0 1 -1-1v-4.625a1 1 0 0 1 1-1h42.812a1 1 0 0 1 1 1v4.627a1 1 0 0 1 -1 .998zm-41.812-2h40.812v-2.625h-40.812z"/><path d="m13.5 19.879a3.724 3.724 0 0 1 -3.72-3.719v-10.497a3.72 3.72 0 1 1 7.439 0v10.5a3.723 3.723 0 0 1 -3.719 3.716zm0-15.936a1.722 1.722 0 0 0 -1.72 1.72v10.5a1.72 1.72 0 0 0 3.439 0v-10.5a1.721 1.721 0 0 0 -1.719-1.72z"/><path d="m61.753 19.879a3.723 3.723 0 0 1 -3.719-3.719v-10.497a3.72 3.72 0 1 1 7.439 0v10.5a3.724 3.724 0 0 1 -3.72 3.716zm0-15.936a1.721 1.721 0 0 0 -1.719 1.72v10.5a1.72 1.72 0 0 0 3.439 0v-10.5a1.722 1.722 0 0 0 -1.72-1.72z"/></svg>