<svg id="Icons" height="512" viewBox="0 0 74 74" width="512" xmlns="http://www.w3.org/2000/svg"><path d="m54.93 57.4a21.7 21.7 0 0 1 -16.546-7.488c-4.229-5.115-7.205-5.236-7.235-5.237a1.368 1.368 0 0 1 -.18-.016c-.507-.094-12.45-2.353-14.8-8.065a5.988 5.988 0 0 1 -.081-4.767c1.225-2.87 4.507-4.187 4.646-4.242a1 1 0 0 1 1.323.64c.008.026 1.449 4.032 10.791 8.676 7.637 3.8 10.9 7.618 11.308 8.121 4.391 4.433 7.082 5.125 7.109 5.132 7.512 1.885 18.625-2.707 18.736-2.754a1 1 0 0 1 1.213 1.5c-.186.268-4.635 6.579-12.062 8.088a21.205 21.205 0 0 1 -4.222.412zm-23.676-14.719c.753.032 4.151.494 8.671 5.96a19.818 19.818 0 0 0 18.829 6.383 17.694 17.694 0 0 0 8.215-4.42c-4.131 1.288-10.838 2.84-16.169 1.5-.1-.021-3.2-.745-8.1-5.707a.789.789 0 0 1 -.076-.087c-.029-.036-3.093-3.849-10.664-7.612-7.482-3.72-10.3-7.168-11.3-8.838a6.343 6.343 0 0 0 -2.728 2.766 4.01 4.01 0 0 0 .1 3.214c1.582 3.872 10.004 6.234 13.222 6.841z"/><path d="m70.391 49.326a1 1 0 0 1 -.835-1.548 2.615 2.615 0 0 0 .428-1.765 1.165 1.165 0 0 0 -.76-.944 36.558 36.558 0 0 0 -4.573-1.364 56.207 56.207 0 0 1 -7.809-2.456 1 1 0 0 1 -.489-.413l-8.439-13.971c-3.616 1.135-6.832.97-9.34-.486-2.491-1.446-4.154-4.064-4.947-7.788-4.761-.325-8.567 3.061-11.6 10.315a1 1 0 0 1 -1.845-.772c3.531-8.443 8.374-12.3 14.425-11.451a1 1 0 0 1 .846.817c.618 3.514 2.006 5.919 4.126 7.15 2.73 1.584 6.095.913 8.44.07a1 1 0 0 1 1.193.424l8.678 14.367a54.408 54.408 0 0 0 7.246 2.253 38.827 38.827 0 0 1 4.8 1.437 3.182 3.182 0 0 1 2.037 2.611 4.611 4.611 0 0 1 -.747 3.063 1 1 0 0 1 -.835.451z"/><path d="m27.651 36.1a1 1 0 0 1 -.651-1.758 7.341 7.341 0 0 0 2.954-5.418c.046-3.468-3.007-6.62-4.322-7.814a1 1 0 0 1 1.345-1.481c1.882 1.71 5.031 5.194 4.977 9.322-.034 2.527-1.262 4.85-3.65 6.906a.993.993 0 0 1 -.653.243z"/><path d="m50.265 47.265a.994.994 0 0 1 -.41-.089c-1.845-.828-3.39-2.564-4.592-5.157a28.072 28.072 0 0 1 -1.763-7.195 3.367 3.367 0 0 0 -.472-1.322 3.459 3.459 0 0 0 -3.651-1.587 18.158 18.158 0 0 1 -3.111.293 9.859 9.859 0 0 1 -5.931-1.8 1 1 0 0 1 1.148-1.638 7.83 7.83 0 0 0 4.734 1.442 16.286 16.286 0 0 0 2.755-.252 5.492 5.492 0 0 1 4.229.871 5.428 5.428 0 0 1 1.53 1.627 5.3 5.3 0 0 1 .75 2.1 27.128 27.128 0 0 0 1.6 6.623 7.957 7.957 0 0 0 3.6 4.173 1 1 0 0 1 -.41 1.913z"/><path d="m47.971 47.728a11.533 11.533 0 0 1 -5.364-1.543 1 1 0 1 1 .936-1.767c5.192 2.753 7.787.615 9.049-1.663a6.787 6.787 0 0 1 4.45-3.422 1 1 0 0 1 .342 1.97 4.786 4.786 0 0 0 -3.043 2.422 7.265 7.265 0 0 1 -6.37 4.003z"/><path d="m48.151 29.889a1 1 0 0 1 -.462-1.889l3.2-1.658a1 1 0 0 1 .921 1.775l-3.2 1.658a.985.985 0 0 1 -.459.114z"/><path d="m49.876 32.846a1 1 0 0 1 -.461-1.888l3.2-1.658a1 1 0 0 1 .921 1.776l-3.2 1.658a1 1 0 0 1 -.46.112z"/><path d="m51.6 35.8a1 1 0 0 1 -.462-1.888l3.2-1.658a1 1 0 0 1 .921 1.775l-3.2 1.658a.988.988 0 0 1 -.459.113z"/><path d="m53.326 38.761a1 1 0 0 1 -.462-1.887l3.2-1.659a1 1 0 0 1 .92 1.776l-3.2 1.658a1 1 0 0 1 -.458.112z"/><path d="m21.1 45.586h-16.975a1 1 0 0 1 0-2h16.975a1 1 0 0 1 0 2z"/><path d="m19.979 51.508h-16.979a1 1 0 0 1 0-2h16.979a1 1 0 0 1 0 2z"/><path d="m23.127 57.43h-16.979a1 1 0 0 1 0-2h16.979a1 1 0 1 1 0 2z"/></svg>