<svg id="Icons" height="512" viewBox="0 0 74 74" width="512" xmlns="http://www.w3.org/2000/svg"><path d="m19.968 73.276a13.349 13.349 0 0 1 -9.345-4.249 11.167 11.167 0 0 1 -3.248-8.745 134.718 134.718 0 0 0 .367-13.736 43.171 43.171 0 0 0 -.679-6.871c-.917-5.175-1.952-12.015-1.679-15.214 1.782-20.943 14.804-21.185 14.934-21.185s13.153.242 14.935 21.185c.273 3.207-.763 10.043-1.68 15.214a43.094 43.094 0 0 0 -.677 6.871 134.9 134.9 0 0 0 .366 13.736 10.7 10.7 0 0 1 -2.762 8.189 14.446 14.446 0 0 1 -10.141 4.8c-.13.002-.259.005-.391.005zm.352-68c-.5.006-11.327.363-12.944 19.355-.268 3.14.923 10.555 1.656 14.7a45.126 45.126 0 0 1 .71 7.187 137.355 137.355 0 0 1 -.375 13.956 9.2 9.2 0 0 0 2.708 7.183 11.2 11.2 0 0 0 8.2 3.618 12.582 12.582 0 0 0 8.714-4.117 8.8 8.8 0 0 0 2.277-6.684 136.961 136.961 0 0 1 -.366-13.961 45.073 45.073 0 0 1 .708-7.188c.734-4.136 1.924-11.545 1.657-14.694-1.626-19.045-12.73-19.353-12.945-19.355z"/><path d="m20.325 68.536c-3.849 0-8.2-2.67-8.669-8.531q-.057-.732-.058-1.519c0-9.132 7.942-13.111 8.28-13.276a1 1 0 0 1 .876 0c.339.165 8.3 4.143 8.3 13.276 0 .526-.021 1.034-.06 1.523-.467 5.859-4.82 8.527-8.669 8.527zm-.012-21.286c-1.573.916-6.716 4.432-6.716 11.236q0 .707.052 1.362c.367 4.619 3.617 6.688 6.675 6.688 3.058 0 6.308-2.067 6.675-6.686.035-.438.054-.892.054-1.364.001-6.747-5.187-10.319-6.74-11.236z"/><path d="m53.331 73.276a13.352 13.352 0 0 1 -9.345-4.248 11.171 11.171 0 0 1 -3.248-8.746 134.891 134.891 0 0 0 .362-13.735 43.1 43.1 0 0 0 -.677-6.872c-.917-5.171-1.953-12.007-1.68-15.214 1.786-20.943 14.808-21.185 14.939-21.185s13.152.242 14.934 21.185c.273 3.2-.762 10.039-1.679 15.213a43.2 43.2 0 0 0 -.679 6.873 134.706 134.706 0 0 0 .367 13.735 10.7 10.7 0 0 1 -2.764 8.189 14.446 14.446 0 0 1 -10.14 4.8c-.129.002-.26.005-.39.005zm.353-68c-.5.006-11.328.363-12.945 19.355-.267 3.149.923 10.558 1.657 14.694a45.073 45.073 0 0 1 .708 7.188 136.961 136.961 0 0 1 -.374 13.956 9.2 9.2 0 0 0 2.708 7.183 11.237 11.237 0 0 0 8.2 3.618 12.582 12.582 0 0 0 8.713-4.117 8.791 8.791 0 0 0 2.277-6.684 137.355 137.355 0 0 1 -.375-13.956 45.15 45.15 0 0 1 .71-7.188c.733-4.139 1.924-11.554 1.656-14.694-1.619-19.045-12.719-19.353-12.935-19.355z"/><path d="m60.392 19.194a1 1 0 0 1 -.278-.039 22.882 22.882 0 0 0 -12.866 0 1 1 0 0 1 -.555-1.922 24.868 24.868 0 0 1 13.976 0 1 1 0 0 1 -.277 1.961z"/><path d="m60.392 23.756a1.036 1.036 0 0 1 -.278-.039 22.865 22.865 0 0 0 -12.866 0 1 1 0 0 1 -.555-1.922 24.85 24.85 0 0 1 13.976 0 1 1 0 0 1 -.277 1.961z"/><path d="m59.769 28.318a1.029 1.029 0 0 1 -.3-.047 18.745 18.745 0 0 0 -11.57 0 1 1 0 0 1 -.605-1.907 20.721 20.721 0 0 1 12.78 0 1 1 0 0 1 -.3 1.954z"/><path d="m59.081 32.88a.993.993 0 0 1 -.337-.059 14.651 14.651 0 0 0 -10.126 0 1 1 0 0 1 -.674-1.883 16.6 16.6 0 0 1 11.474 0 1 1 0 0 1 -.337 1.942z"/><path d="m57.893 37.441a.989.989 0 0 1 -.416-.091 8.631 8.631 0 0 0 -7.591 0 1 1 0 0 1 -.834-1.818 10.652 10.652 0 0 1 9.259 0 1 1 0 0 1 -.418 1.909z"/><path d="m53.688 68.536c-3.849 0-8.2-2.67-8.668-8.531q-.06-.73-.06-1.519c0-9.132 7.943-13.111 8.281-13.276a1 1 0 0 1 .876 0c.339.165 8.3 4.143 8.3 13.276q0 .789-.059 1.523c-.467 5.859-4.822 8.527-8.67 8.527zm-.009-21.289c-1.568.913-6.72 4.43-6.72 11.239 0 .47.019.924.054 1.36.366 4.621 3.616 6.69 6.674 6.69 3.058 0 6.307-2.067 6.675-6.686q.053-.657.053-1.364c.001-6.808-5.163-10.325-6.736-11.239z"/><path d="m53.688 39.291a1 1 0 0 1 -1-1v-22.958a1 1 0 1 1 2 0v22.958a1 1 0 0 1 -1 1z"/><path d="m27.029 19.194a.991.991 0 0 1 -.277-.039 22.877 22.877 0 0 0 -12.867 0 1 1 0 1 1 -.555-1.922 24.872 24.872 0 0 1 13.977 0 1 1 0 0 1 -.278 1.961z"/><path d="m27.029 23.756a1.029 1.029 0 0 1 -.277-.039 22.859 22.859 0 0 0 -12.867 0 1 1 0 1 1 -.555-1.917 24.854 24.854 0 0 1 13.977 0 1 1 0 0 1 -.278 1.961z"/><path d="m26.406 28.318a1.027 1.027 0 0 1 -.3-.047 18.73 18.73 0 0 0 -11.57 0 1 1 0 1 1 -.605-1.907 20.736 20.736 0 0 1 12.78 0 1 1 0 0 1 -.3 1.954z"/><path d="m14.919 32.88a1 1 0 0 1 -.337-1.942 16.6 16.6 0 0 1 11.474 0 1 1 0 0 1 -.674 1.883 14.645 14.645 0 0 0 -10.126 0 .993.993 0 0 1 -.337.059z"/><path d="m16.107 37.441a1 1 0 0 1 -.418-1.909 10.655 10.655 0 0 1 9.259 0 1 1 0 1 1 -.834 1.818 8.627 8.627 0 0 0 -7.591 0 .989.989 0 0 1 -.416.091z"/><path d="m20.325 39.291a1 1 0 0 1 -1-1v-22.958a1 1 0 0 1 2 0v22.958a1 1 0 0 1 -1 1z"/></svg>