<svg id="Icons" height="512" viewBox="0 0 74 74" width="512" xmlns="http://www.w3.org/2000/svg"><path d="m52.583 72h-31.166a4.784 4.784 0 0 1 -4.778-4.778v-60.444a4.784 4.784 0 0 1 4.778-4.778h31.166a4.784 4.784 0 0 1 4.778 4.778v60.444a4.784 4.784 0 0 1 -4.778 4.778zm-31.166-68a2.781 2.781 0 0 0 -2.778 2.778v60.444a2.781 2.781 0 0 0 2.778 2.778h31.166a2.781 2.781 0 0 0 2.778-2.778v-60.444a2.781 2.781 0 0 0 -2.778-2.778z"/><path d="m56.361 59.329h-38.722a1 1 0 0 1 -1-1v-46a1 1 0 0 1 1-1h38.722a1 1 0 0 1 1 1v46a1 1 0 0 1 -1 1zm-37.722-2h36.722v-44h-36.722z"/><path d="m39.863 65.507h-5.726a1 1 0 0 1 0-2h5.726a1 1 0 0 1 0 2z"/><path d="m32.69 8.37a1.007 1.007 0 0 1 -1-1 1.355 1.355 0 0 1 .02-.2.636.636 0 0 1 .06-.18.608.608 0 0 1 .09-.18l.12-.15a1.024 1.024 0 0 1 1.09-.22 1.12 1.12 0 0 1 .33.22 1.576 1.576 0 0 1 .12.15.608.608 0 0 1 .09.18.636.636 0 0 1 .06.18.68.68 0 0 1 .02.2 1.009 1.009 0 0 1 -.29.7.834.834 0 0 1 -.33.22 1 1 0 0 1 -.38.08z"/><path d="m37 8.37a.99.99 0 0 1 -1-1 1.033 1.033 0 0 1 .29-.71 1.268 1.268 0 0 1 .33-.22 1.021 1.021 0 0 1 1.09.22 1.033 1.033 0 0 1 .29.71.99.99 0 0 1 -1 1z"/><path d="m41.31 8.37a1.007 1.007 0 0 1 -1-1 1 1 0 0 1 .08-.38.933.933 0 0 1 .21-.33 1 1 0 0 1 .9-.27.6.6 0 0 1 .19.06.757.757 0 0 1 .18.09 1.576 1.576 0 0 1 .15.12 1.033 1.033 0 0 1 .29.71 1.009 1.009 0 0 1 -.29.7 1.738 1.738 0 0 1 -.15.13.757.757 0 0 1 -.18.09.6.6 0 0 1 -.19.06 1.108 1.108 0 0 1 -.19.02z"/><path d="m46.039 47.338a7.7 7.7 0 0 1 -3.219-.714 13.752 13.752 0 0 1 -1.565-.828c-8.327 2.961-14.236-1.818-16.416-4.046a4.5 4.5 0 0 1 -1.249-3.526 42.27 42.27 0 0 1 2.67-10.9 11.064 11.064 0 0 1 7.9-6.965c.09-.021.179-.04.268-.055a3.24 3.24 0 0 1 2.492.6 6.331 6.331 0 0 1 2.365 3.3c.209 1.249-2.007 3.2-3.347 4.254a1.773 1.773 0 0 1 -2.321-.281c-.03.017-.059.032-.089.047a19.8 19.8 0 0 1 .292 5.372 5.714 5.714 0 0 1 6.2.767 8.634 8.634 0 0 1 4.489-2.512 7.487 7.487 0 0 1 4.027.351 1 1 0 0 1 -.632 1.9 5.336 5.336 0 0 0 -2.975-.293 6.814 6.814 0 0 0 -4.033 2.6 1 1 0 0 1 -1.517.078c-1.81-1.9-3.909-1.957-6.238-.15a1 1 0 0 1 -1.591-.994 17.423 17.423 0 0 0 -.171-7.595 1 1 0 0 1 1.08-1.227 1.158 1.158 0 0 0 .489-.345 1.121 1.121 0 0 1 .763-.331 1 1 0 0 1 .749.36 3.327 3.327 0 0 0 .5.474 15.4 15.4 0 0 0 2.3-2.3c-.283-.664-1.44-2.319-2.463-2.108l-.184.038a9.066 9.066 0 0 0 -6.479 5.71 40.311 40.311 0 0 0 -2.553 10.367 2.5 2.5 0 0 0 .686 1.963c2.416 2.469 7.549 6.191 14.753 3.4a1 1 0 0 1 .964.133 10.1 10.1 0 0 0 1.664.921 5.63 5.63 0 0 0 3.978.3 1 1 0 0 1 .56 1.92 7.676 7.676 0 0 1 -2.147.315zm-11.33-20.447-.016.013z"/><path d="m32.075 36.924a1 1 0 0 1 -.65-1.76c.173-.147.353-.294.519-.416a1 1 0 1 1 1.182 1.613c-.129.1-.268.209-.4.324a.994.994 0 0 1 -.651.239z"/><path d="m41.387 38.557a1 1 0 0 1 -.894-.55 7.2 7.2 0 0 0 -1.105-1.507 1 1 0 1 1 1.446-1.381 9.068 9.068 0 0 1 1.446 1.991 1 1 0 0 1 -.893 1.447z"/></svg>