<?xml version="1.0" encoding="UTF-8"?>
<svg xmlns="http://www.w3.org/2000/svg" id="Icons" viewBox="0 0 74 74" width="512" height="512"><path d="M23.69,73a3.945,3.945,0,0,1-3.94-3.94V60.77a1,1,0,0,1,1-1h5.89a1,1,0,0,1,1,1v8.29A3.95,3.95,0,0,1,23.69,73ZM21.75,61.77v7.29a1.945,1.945,0,0,0,3.89,0V61.77Z"/><path d="M50.31,73a3.95,3.95,0,0,1-3.95-3.94V60.77a1,1,0,0,1,1-1h5.89a1,1,0,0,1,1,1v8.29A3.945,3.945,0,0,1,50.31,73ZM48.36,61.77v7.29a1.945,1.945,0,0,0,3.89,0V61.77Z"/><path d="M53.25,57.31H47.36a1,1,0,0,1-1-1V54.03H27.64v2.28a1,1,0,0,1-1,1H20.75a1,1,0,0,1-1-1V50.09a3.944,3.944,0,0,1,3.94-3.94h2.94v-12l-7.692,9.2A3.855,3.855,0,0,1,15.483,44.7a3.762,3.762,0,0,1-2.121-.938,3.985,3.985,0,0,1-.391-5.554L25.312,23.39a6.164,6.164,0,0,1,4.758-2.23H43.93a6.166,6.166,0,0,1,4.759,2.231L61.038,38.22a3.98,3.98,0,0,1-.395,5.539l-.005.005a3.792,3.792,0,0,1-2.159.942,3.84,3.84,0,0,1-3.413-1.351l-7.7-9.209v12h2.94a3.944,3.944,0,0,1,3.94,3.94v6.22A1,1,0,0,1,53.25,57.31Zm-4.89-2h3.89V50.09a1.966,1.966,0,0,0-1.94-1.94H46.37a1,1,0,0,1-1-1V31.39a1,1,0,0,1,1.768-.641l9.46,11.32a1.877,1.877,0,0,0,1.665.649,1.855,1.855,0,0,0,1.057-.46,1.974,1.974,0,0,0,.19-2.748L47.151,24.67a4.228,4.228,0,0,0-3.221-1.51H30.07a4.229,4.229,0,0,0-3.22,1.508L14.5,39.5a1.976,1.976,0,0,0,.183,2.76,1.82,1.82,0,0,0,1.017.454,1.876,1.876,0,0,0,1.707-.65l9.456-11.315a1,1,0,0,1,1.768.641V47.15a1,1,0,0,1-1,1H23.69a1.966,1.966,0,0,0-1.94,1.94v5.22h3.89V53.03a1,1,0,0,1,1-1H47.36a1,1,0,0,1,1,1Zm11.62-12.3h0Z"/><path d="M61.99,61.77H12.01a1,1,0,0,1-1-1V56.31a1,1,0,0,1,1-1H61.99a1,1,0,0,1,1,1v4.46A1,1,0,0,1,61.99,61.77Zm-48.98-2H60.99V57.31H13.01Z"/><path d="M10.2,67.4H8.03a2.818,2.818,0,0,1-2.81-2.82V52.5a2.813,2.813,0,0,1,2.81-2.81H10.2a2.814,2.814,0,0,1,2.81,2.81V64.58A2.818,2.818,0,0,1,10.2,67.4ZM8.03,51.69a.81.81,0,0,0-.81.81V64.58a.816.816,0,0,0,.81.82H10.2a.816.816,0,0,0,.81-.82V52.5a.811.811,0,0,0-.81-.81Z"/><path d="M65.97,67.4H63.8a2.818,2.818,0,0,1-2.81-2.82V52.5a2.814,2.814,0,0,1,2.81-2.81h2.17a2.813,2.813,0,0,1,2.81,2.81V64.58A2.818,2.818,0,0,1,65.97,67.4ZM63.8,51.69a.811.811,0,0,0-.81.81V64.58a.816.816,0,0,0,.81.82h2.17a.816.816,0,0,0,.81-.82V52.5a.81.81,0,0,0-.81-.81Z"/><path d="M37,20.253a8.627,8.627,0,1,1,8.626-8.627A8.636,8.636,0,0,1,37,20.253ZM37,5a6.627,6.627,0,1,0,6.626,6.626A6.634,6.634,0,0,0,37,5Z"/></svg>
