<svg id="Icons" height="512" viewBox="0 0 74 74" width="512" xmlns="http://www.w3.org/2000/svg"><path d="m37.007 61.02a.991.991 0 0 1 -.573-.181c-.595-.416-14.552-10.291-14.552-18.967a9.385 9.385 0 0 1 15.125-7.435 9.375 9.375 0 0 1 15.111 7.435c0 8.676-13.943 18.551-14.537 18.967a1.006 1.006 0 0 1 -.574.181zm-5.729-26.543a7.4 7.4 0 0 0 -7.4 7.4c0 6.736 10.525 14.979 13.124 16.91 2.6-1.934 13.112-10.18 13.112-16.91a7.376 7.376 0 0 0 -12.424-5.398 1 1 0 0 1 -1.367 0 7.362 7.362 0 0 0 -5.045-2.002z"/><path d="m22.882 43.26h-4.082a5.284 5.284 0 0 1 -5.278-5.278v-16.674a1 1 0 0 1 2 0v16.674a3.281 3.281 0 0 0 3.278 3.278h4.08a1 1 0 0 1 0 2z"/><path d="m64.813 21.856h-55.625a1 1 0 0 1 -1-1v-5.768a1 1 0 0 1 1-1h55.625a1 1 0 0 1 1 1v5.768a1 1 0 0 1 -1 1zm-54.625-2h53.625v-3.768h-53.625z"/><path d="m6.094 26.972a4.1 4.1 0 0 1 -4.094-4.093v-9.814a4.094 4.094 0 0 1 8.188 0v9.814a4.1 4.1 0 0 1 -4.094 4.093zm0-16a2.1 2.1 0 0 0 -2.094 2.093v9.814a2.094 2.094 0 0 0 4.188 0v-9.814a2.1 2.1 0 0 0 -2.094-2.093z"/><path d="m67.906 26.972a4.1 4.1 0 0 1 -4.093-4.093v-9.814a4.094 4.094 0 0 1 8.187 0v9.814a4.1 4.1 0 0 1 -4.094 4.093zm0-16a2.1 2.1 0 0 0 -2.093 2.093v9.814a2.094 2.094 0 0 0 4.187 0v-9.814a2.1 2.1 0 0 0 -2.094-2.093z"/><path d="m55.212 43.26h-4.081a1 1 0 0 1 0-2h4.081a3.28 3.28 0 0 0 3.277-3.278v-16.674a1 1 0 0 1 2 0v16.674a5.283 5.283 0 0 1 -5.277 5.278z"/><path d="m29.2 65.028h-3.986a1 1 0 0 1 0-2h3.339l3.133-6.928a1 1 0 1 1 1.822.823l-3.4 7.522a1 1 0 0 1 -.908.583z"/><path d="m48.8 65.028h-3.985a1 1 0 0 1 -.911-.588l-3.4-7.522a1 1 0 1 1 1.822-.823l3.133 6.933h3.341a1 1 0 0 1 0 2z"/></svg>