<svg id="Icons" height="512" viewBox="0 0 74 74" width="512" xmlns="http://www.w3.org/2000/svg"><path d="m54.442 58.156h-50.023a1 1 0 0 1 -1-1v-5.989a1 1 0 0 1 1-1h50.023a1 1 0 0 1 1 1v5.989a1 1 0 0 1 -1 1zm-49.023-2h48.023v-3.989h-48.023z"/><path d="m13.859 67.05h-5.306a1 1 0 0 1 -1-1v-8.894a1 1 0 0 1 1-1h5.306a1 1 0 0 1 1 1v8.894a1 1 0 0 1 -1 1zm-4.306-2h3.306v-6.894h-3.306z"/><path d="m50.309 67.05h-5.309a1 1 0 0 1 -1-1v-8.894a1 1 0 0 1 1-1h5.307a1 1 0 0 1 1 1v8.894a1 1 0 0 1 -.998 1zm-4.309-2h3.307v-6.894h-3.307z"/><path d="m12.081 50.978a6.24 6.24 0 1 1 6.24-6.24 6.247 6.247 0 0 1 -6.24 6.24zm0-10.48a4.24 4.24 0 1 0 4.24 4.24 4.245 4.245 0 0 0 -4.24-4.238z"/><path d="m29.431 29.39a7.187 7.187 0 1 1 7.186-7.19 7.2 7.2 0 0 1 -7.186 7.19zm0-12.374a5.187 5.187 0 1 0 5.186 5.184 5.193 5.193 0 0 0 -5.186-5.184z"/><path d="m29.431 25.156a2.953 2.953 0 1 1 2.953-2.956 2.957 2.957 0 0 1 -2.953 2.956zm0-3.906a.953.953 0 1 0 .953.953.954.954 0 0 0 -.953-.953z"/><path d="m69.271 69.164a4.116 4.116 0 0 1 -4.058-3.373c-2-10.952-6.943-15.406-10.9-15.922a1 1 0 0 1 -.871-.992v-6.341a1 1 0 0 1 1-1h.023c.6.013 14.722.589 18.883 22.729a4.15 4.15 0 0 1 -4.077 4.9zm-13.829-21.113c2.921.717 9.264 3.845 11.738 17.381a2.118 2.118 0 0 0 2.091 1.732 2.146 2.146 0 0 0 1.653-.781 2.12 2.12 0 0 0 .459-1.748c-3.225-17.156-12.783-20.369-15.941-20.965z"/><path d="m52.084 52.17h-24.379a7.023 7.023 0 0 1 -4.949-12.007 6.825 6.825 0 0 1 3.124-1.819v-10.508a1 1 0 0 1 2 0v11.329a1 1 0 0 1 -.874.992 4.831 4.831 0 0 0 -2.835 1.419 5.023 5.023 0 0 0 3.534 8.594h24.379a1.359 1.359 0 0 0 1.358-1.357v-7.354a1.359 1.359 0 0 0 -1.358-1.359h-20.084a1 1 0 0 1 -1-1v-11.285a1 1 0 1 1 2 0v10.285h19.084a3.361 3.361 0 0 1 3.358 3.357v7.354a3.361 3.361 0 0 1 -3.358 3.359z"/></svg>