<svg id="Icons" height="512" viewBox="0 0 74 74" width="512" xmlns="http://www.w3.org/2000/svg"><path d="m37 72a35 35 0 1 1 35-35 35.04 35.04 0 0 1 -35 35zm0-68a33 33 0 1 0 33 33 33.038 33.038 0 0 0 -33-33z"/><path d="m54.565 65.252a43.075 43.075 0 0 1 -43.026-43.027 42.026 42.026 0 0 1 1.253-10.288 1 1 0 1 1 1.939.49 40 40 0 0 0 -1.192 9.8 41.072 41.072 0 0 0 41.026 41.025c.946 0 1.879-.036 2.774-.107a1 1 0 1 1 .16 1.993c-.948.076-1.935.114-2.934.114z"/><path d="m60.569 47.019a32.243 32.243 0 0 1 -32.2-32.206 31.384 31.384 0 0 1 2.216-11.713 1 1 0 0 1 1.857.743 29.389 29.389 0 0 0 -2.078 10.969 30.254 30.254 0 0 0 39.461 28.772 1 1 0 1 1 .612 1.9 32.236 32.236 0 0 1 -9.868 1.535z"/><path d="m69.612 31.23a26.045 26.045 0 0 1 -26.012-26.016 8.914 8.914 0 0 1 .087-1.5 1 1 0 1 1 1.972.325 7.457 7.457 0 0 0 -.059 1.175 24.042 24.042 0 0 0 24.012 24.016 2.941 2.941 0 0 0 .5-.023 1 1 0 1 1 .328 1.973 4.958 4.958 0 0 1 -.828.05z"/></svg>