<svg id="Icons" height="512" viewBox="0 0 74 74" width="512" xmlns="http://www.w3.org/2000/svg"><path d="m15.424 72.935a6.659 6.659 0 0 1 -6.652-6.652v-21.616a1 1 0 0 1 1-1h11.3a1 1 0 0 1 1 1v21.616a6.659 6.659 0 0 1 -6.648 6.652zm-4.652-27.268v20.616a4.652 4.652 0 1 0 9.3 0v-20.616z"/><path d="m59.033 72.935a6.659 6.659 0 0 1 -6.651-6.652v-21.616a1 1 0 0 1 1-1h11.3a1 1 0 0 1 1 1v21.616a6.659 6.659 0 0 1 -6.649 6.652zm-4.651-27.268v20.616a4.652 4.652 0 1 0 9.3 0v-20.616z"/><path d="m21.075 50.889h-11.303a1 1 0 1 1 0-2h11.3a1 1 0 0 1 0 2z"/><path d="m64.685 50.889h-11.3a1 1 0 0 1 0-2h11.3a1 1 0 0 1 0 2z"/><path d="m59.033 45.667a1 1 0 0 1 -1-1v-20.982a3.072 3.072 0 0 0 -6.144 0v9.815a5.554 5.554 0 1 1 -11.107 0v-24.608a3.957 3.957 0 1 0 -7.914 0v27.091a5.15 5.15 0 0 1 -10.3 0v-12.3a3.072 3.072 0 0 0 -6.144 0v20.984a1 1 0 0 1 -2 0v-20.982a5.072 5.072 0 0 1 10.144 0v12.3a3.15 3.15 0 0 0 6.3 0v-27.093a5.957 5.957 0 1 1 11.914 0v24.608a3.554 3.554 0 1 0 7.107 0v-9.815a5.072 5.072 0 0 1 10.144 0v20.982a1 1 0 0 1 -1 1z"/></svg>