<svg id="Icons" height="512" viewBox="0 0 74 74" width="512" xmlns="http://www.w3.org/2000/svg"><path d="m17.393 61.446a1 1 0 0 1 -.947-1.325l1.974-5.756a1 1 0 0 1 .819-.667l42.474-5.453a1 1 0 0 1 1.1.775l2.5 11.208a1 1 0 0 1 -1.954.435l-2.3-10.318-40.949 5.255-1.771 5.17a1 1 0 0 1 -.946.676z"/><path d="m23.861 66.229h-12.942a1 1 0 0 1 -.953-1.3l1.512-4.785a1 1 0 0 1 .953-.7h9.92a1 1 0 0 1 .953.7l1.511 4.785a1 1 0 0 1 -.954 1.3zm-11.578-2h10.217l-.88-2.785h-8.457z"/><path d="m71 66.229h-12.942a1 1 0 0 1 -.954-1.3l1.512-4.785a1 1 0 0 1 .953-.7h9.92a1 1 0 0 1 .953.7l1.512 4.785a1 1 0 0 1 -.954 1.3zm-11.578-2h10.214l-.88-2.785h-8.456z"/><path d="m18.186 55.735a16.185 16.185 0 1 1 2.066-32.235l41.3 5.315a10.826 10.826 0 0 1 0 21.474l-41.3 5.311a16.319 16.319 0 0 1 -2.066.135zm0-30.37a14.185 14.185 0 1 0 1.814 28.254l41.3-5.316a8.825 8.825 0 0 0 0-17.506l-41.3-5.316a14.124 14.124 0 0 0 -1.814-.116z"/><path d="m17.391 48.944a9.394 9.394 0 1 1 9.394-9.394 9.405 9.405 0 0 1 -9.394 9.394zm0-16.788a7.394 7.394 0 1 0 7.394 7.394 7.4 7.4 0 0 0 -7.394-7.394z"/><path d="m39.29 57.979a1 1 0 0 1 -.783-.377l-7.361-9.231a1.009 1.009 0 0 1 -.217-.624v-5.958a1 1 0 0 1 2 0v5.611l7.142 8.958a1 1 0 0 1 -.781 1.624z"/><path d="m43.149 57.979h-7.72a1 1 0 0 1 0-2h7.72a1 1 0 0 1 0 2z"/><path d="m57.436 30.292a1.012 1.012 0 0 1 -.254-.033 1 1 0 0 1 -.715-1.221l4.221-16.118a1 1 0 0 1 1.935.507l-4.223 16.118a1 1 0 0 1 -.964.747z"/><path d="m60.081 14.355a7.841 7.841 0 0 1 -4.088-1.14 1 1 0 0 1 1.139-1.644c.208.14 4.774 3.108 9.454-3.385a1 1 0 0 1 1.623 1.169c-2.868 3.978-5.836 5-8.128 5z"/><path d="m17.908 25.361a1 1 0 0 1 -.937-.653l-1.887-5.083a1 1 0 1 1 1.875-.7l1.887 5.083a1 1 0 0 1 -.59 1.286 1.012 1.012 0 0 1 -.348.067z"/><path d="m22.915 20.277h-10.315a3.773 3.773 0 0 1 -3.768-3.769v-1.962a3.765 3.765 0 0 1 3.21-3.732 8.25 8.25 0 0 1 4.958.855 74.13 74.13 0 0 0 6.919 2.719 3.031 3.031 0 0 1 -1.008 5.889zm-9.726-7.543a6.366 6.366 0 0 0 -.868.061 1.757 1.757 0 0 0 -1.485 1.751v1.962a1.771 1.771 0 0 0 1.764 1.769h10.315a1.031 1.031 0 0 0 .346-2 75.638 75.638 0 0 1 -7.161-2.824 6.366 6.366 0 0 0 -2.911-.719z"/></svg>