<svg id="Icons" height="512" viewBox="0 0 74 74" width="512" xmlns="http://www.w3.org/2000/svg"><path d="m67.35 73.37h-60.697a4.657 4.657 0 0 1 -4.653-4.652v-46.43a1 1 0 0 1 1-1h68a1 1 0 0 1 1 1v46.43a4.657 4.657 0 0 1 -4.65 4.652zm-63.35-50.082v45.43a2.655 2.655 0 0 0 2.653 2.652h60.7a2.655 2.655 0 0 0 2.647-2.652v-45.43z"/><path d="m56.358 7.641h-38.719a1 1 0 0 1 0-2h38.719a1 1 0 0 1 0 2z"/><path d="m71 23.288h-68a1 1 0 0 1 -1-1v-12a4.655 4.655 0 0 1 4.649-4.65h5.891a1 1 0 0 1 0 2h-5.892a2.653 2.653 0 0 0 -2.648 2.653v11h66v-11a2.653 2.653 0 0 0 -2.65-2.65h-5.89a1 1 0 0 1 0-2h5.89a4.655 4.655 0 0 1 4.65 4.65v12a1 1 0 0 1 -1 .997z"/><path d="m16.659 12.642h-3.138a1.984 1.984 0 0 1 -1.981-1.981v-8.05a1.984 1.984 0 0 1 1.981-1.981h3.138a1.984 1.984 0 0 1 1.981 1.981v8.05a1.984 1.984 0 0 1 -1.981 1.981zm-3.119-10.012v8.031l3.119-.019-.019-8.031zm-.019-1v1z"/><path d="m60.481 12.642h-3.138a1.984 1.984 0 0 1 -1.981-1.981v-8.05a1.984 1.984 0 0 1 1.981-1.981h3.138a1.984 1.984 0 0 1 1.981 1.981v8.05a1.984 1.984 0 0 1 -1.981 1.981zm-3.119-10.012v8.031l3.119-.019-.019-8.031z"/><path d="m37 52.669a61.171 61.171 0 0 1 -12.639-1.4 1 1 0 0 1 -.8-.979v-9.07a1 1 0 0 1 .8-.979 57.737 57.737 0 0 1 25.277 0 1 1 0 0 1 .8.979v9.07a1 1 0 0 1 -.8.979 61.154 61.154 0 0 1 -12.638 1.4zm-11.436-3.2a55.376 55.376 0 0 0 22.871 0v-7.431a55.342 55.342 0 0 0 -22.871 0z"/><path d="m54.226 56.66h-.726a5.075 5.075 0 0 1 -5.069-5.069v-11.175a5.076 5.076 0 0 1 5.069-5.07h.722a5.076 5.076 0 0 1 5.069 5.07v11.175a5.075 5.075 0 0 1 -5.065 5.069zm-.726-19.314a3.073 3.073 0 0 0 -3.069 3.07v11.175a3.073 3.073 0 0 0 3.069 3.069h.722a3.073 3.073 0 0 0 3.078-3.069v-11.175a3.073 3.073 0 0 0 -3.069-3.07z"/><path d="m20.5 56.66h-.722a5.075 5.075 0 0 1 -5.069-5.069v-11.175a5.076 5.076 0 0 1 5.069-5.07h.722a5.076 5.076 0 0 1 5.069 5.07v11.175a5.075 5.075 0 0 1 -5.069 5.069zm-.722-19.314a3.073 3.073 0 0 0 -3.069 3.07v11.175a3.073 3.073 0 0 0 3.069 3.069h.722a3.073 3.073 0 0 0 3.069-3.069v-11.175a3.073 3.073 0 0 0 -3.069-3.07z"/></svg>